<svg width="33" height="29" viewBox="0 0 33 29" fill="none" xmlns="http://www.w3.org/2000/svg">
<g clip-path="url(#clip0_829_681)">
<path d="M14.9079 21.75H17.6056C18.3474 21.75 18.9544 21.2063 18.9544 20.5417C18.9544 19.8771 18.3474 19.3333 17.6056 19.3333H14.9079C14.166 19.3333 13.559 19.8771 13.559 20.5417C13.559 21.2063 14.166 21.75 14.9079 21.75ZM4.11719 8.45833C4.11719 9.12292 4.72416 9.66667 5.46602 9.66667H27.0474C27.7893 9.66667 28.3963 9.12292 28.3963 8.45833C28.3963 7.79375 27.7893 7.25 27.0474 7.25H5.46602C4.72416 7.25 4.11719 7.79375 4.11719 8.45833ZM9.51254 15.7083H23.0009C23.7428 15.7083 24.3497 15.1646 24.3497 14.5C24.3497 13.8354 23.7428 13.2917 23.0009 13.2917H9.51254C8.77068 13.2917 8.1637 13.8354 8.1637 14.5C8.1637 15.1646 8.77068 15.7083 9.51254 15.7083Z" fill="#041F5A"/>
</g>
<defs>
<clipPath id="clip0_829_681">
<rect x="0.0703125" width="32.3721" height="29" rx="14.5" fill="white"/>
</clipPath>
</defs>
</svg>
