<svg width="34" height="36" viewBox="0 0 34 36" fill="none" xmlns="http://www.w3.org/2000/svg">
<g clip-path="url(#clip0_829_756)">
<path d="M26.7506 12.1403H7.55479C5.27872 12.1403 3.44141 14.109 3.44141 16.5478V25.3628H8.92592V31.2394H25.3795V25.3628H30.864V16.5478C30.864 14.109 29.0267 12.1403 26.7506 12.1403ZM22.6372 28.3011H11.6682V20.9553H22.6372V28.3011ZM26.7506 18.0169C25.9965 18.0169 25.3795 17.3558 25.3795 16.5478C25.3795 15.7397 25.9965 15.0786 26.7506 15.0786C27.5047 15.0786 28.1217 15.7397 28.1217 16.5478C28.1217 17.3558 27.5047 18.0169 26.7506 18.0169ZM25.3795 4.79443H8.92592V10.6711H25.3795V4.79443Z" fill="#838383"/>
</g>
<defs>
<clipPath id="clip0_829_756">
<rect width="32.9071" height="35.26" fill="white" transform="translate(0.699219 0.386719)"/>
</clipPath>
</defs>
</svg>
