<svg width="33" height="29" viewBox="0 0 33 29" fill="none" xmlns="http://www.w3.org/2000/svg">
<g clip-path="url(#clip0_829_673)">
<path d="M19.8816 7.24984V21.7498C19.8816 22.4144 19.2746 22.9582 18.5327 22.9582H14.0411C13.2992 22.9582 12.6923 22.4144 12.6923 21.7498V7.24984C12.6923 6.58525 13.2992 6.0415 14.0411 6.0415H18.5327C19.2746 6.0415 19.8816 6.58525 19.8816 7.24984ZM22.5792 22.9582H27.0709C27.8127 22.9582 28.4197 22.4144 28.4197 21.7498V7.24984C28.4197 6.58525 27.8127 6.0415 27.0709 6.0415H22.5792C21.8374 6.0415 21.2304 6.58525 21.2304 7.24984V21.7498C21.2304 22.4144 21.8239 22.9582 22.5792 22.9582ZM11.3299 21.7498V7.24984C11.3299 6.58525 10.723 6.0415 9.98109 6.0415H5.48946C4.7476 6.0415 4.14062 6.58525 4.14062 7.24984V21.7498C4.14062 22.4144 4.7476 22.9582 5.48946 22.9582H9.98109C10.7364 22.9582 11.3299 22.4144 11.3299 21.7498Z" fill="#041F5A"/>
</g>
<defs>
<clipPath id="clip0_829_673">
<rect x="0.09375" width="32.3721" height="29" rx="14.5" fill="white"/>
</clipPath>
</defs>
</svg>
