<svg width="40" height="40" viewBox="0 0 40 40" fill="none" xmlns="http://www.w3.org/2000/svg">
<path d="M16 40H4C2.9 40 1.958 39.6087 1.174 38.826C0.391333 38.042 0 37.1 0 36V8C0 6.9 0.391333 5.958 1.174 5.174C1.958 4.39133 2.9 4 4 4H12.35C12.7167 2.83333 13.4333 1.87467 14.5 1.124C15.5667 0.374667 16.7333 0 18 0C19.3333 0 20.5253 0.374667 21.576 1.124C22.6253 1.87467 23.3333 2.83333 23.7 4H32C33.1 4 34.042 4.39133 34.826 5.174C35.6087 5.958 36 6.9 36 8V18H32V8H28V10C28 11.1 27.6087 12.0413 26.826 12.824C26.042 13.608 25.1 14 24 14H12C10.9 14 9.95867 13.608 9.176 12.824C8.392 12.0413 8 11.1 8 10V8H4V36H16V40ZM25 32.25L34.9 22.35C35.2667 21.9833 35.7333 21.8 36.3 21.8C36.8667 21.8 37.3333 21.9833 37.7 22.35C38.0667 22.7167 38.25 23.1833 38.25 23.75C38.25 24.3167 38.0667 24.7833 37.7 25.15L26.4 36.45C26 36.85 25.5333 37.05 25 37.05C24.4667 37.05 24 36.85 23.6 36.45L17.9 30.75C17.5333 30.3833 17.35 29.9167 17.35 29.35C17.35 28.7833 17.5333 28.3167 17.9 27.95C18.2667 27.5833 18.7333 27.4 19.3 27.4C19.8667 27.4 20.3333 27.5833 20.7 27.95L25 32.25ZM18 8C18.5667 8 19.042 7.808 19.426 7.424C19.8087 7.04133 20 6.56667 20 6C20 5.43333 19.8087 4.958 19.426 4.574C19.042 4.19133 18.5667 4 18 4C17.4333 4 16.9587 4.19133 16.576 4.574C16.192 4.958 16 5.43333 16 6C16 6.56667 16.192 7.04133 16.576 7.424C16.9587 7.808 17.4333 8 18 8Z" fill="#212121"/>
</svg>
