<svg width="47" height="47" viewBox="0 0 47 47" fill="none" xmlns="http://www.w3.org/2000/svg">
<g clip-path="url(#clip0_57_537)">
<path d="M39.1667 3.91675H7.83335C5.87502 3.91675 3.91669 5.67925 3.91669 7.83341V13.728C3.91669 15.138 4.75877 16.3522 5.87502 17.0376V39.1667C5.87502 41.3209 8.02919 43.0834 9.79169 43.0834H37.2084C38.9709 43.0834 41.125 41.3209 41.125 39.1667V17.0376C42.2413 16.3522 43.0834 15.138 43.0834 13.728V7.83341C43.0834 5.67925 41.125 3.91675 39.1667 3.91675ZM37.2084 39.1667H9.79169V17.6251H37.2084V39.1667ZM39.1667 13.7084H7.83335V7.83341H39.1667V13.7084Z" fill="#F9FAFB"/>
<path d="M29.375 23.5H17.625V27.4167H29.375V23.5Z" fill="#F9FAFB"/>
</g>
<defs>
<clipPath id="clip0_57_537">
<rect width="47" height="47" fill="white"/>
</clipPath>
</defs>
</svg>
