<svg width="47" height="47" viewBox="0 0 47 47" fill="none" xmlns="http://www.w3.org/2000/svg">
<g clip-path="url(#clip0_54_519)">
<path d="M37.2083 9.79167V37.2083H9.79167V9.79167H37.2083ZM39.3625 5.875H7.6375C6.65833 5.875 5.875 6.65833 5.875 7.6375V39.3625C5.875 40.1458 6.65833 41.125 7.6375 41.125H39.3625C40.1458 41.125 41.125 40.1458 41.125 39.3625V7.6375C41.125 6.65833 40.1458 5.875 39.3625 5.875ZM21.5417 13.7083H33.2917V17.625H21.5417V13.7083ZM21.5417 21.5417H33.2917V25.4583H21.5417V21.5417ZM21.5417 29.375H33.2917V33.2917H21.5417V29.375ZM13.7083 13.7083H17.625V17.625H13.7083V13.7083ZM13.7083 21.5417H17.625V25.4583H13.7083V21.5417ZM13.7083 29.375H17.625V33.2917H13.7083V29.375Z" fill="#F9FAFB"/>
</g>
<defs>
<clipPath id="clip0_54_519">
<rect width="47" height="47" fill="white"/>
</clipPath>
</defs>
</svg>
