<svg width="35" height="43" viewBox="0 0 35 43" fill="none" xmlns="http://www.w3.org/2000/svg">
<path d="M32.0833 3.225L29.1667 0L26.25 3.225L23.3333 0L20.4167 3.225L17.5 0L14.5833 3.225L11.6667 0L8.75 3.225L5.83333 0L2.91667 3.225L0 0V43L2.91667 39.775L5.83333 43L8.75 39.775L11.6667 43L14.5833 39.775L17.5 43L20.4167 39.775L23.3333 43L26.25 39.775L29.1667 43L32.0833 39.775L35 43V0L32.0833 3.225ZM31.1111 36.7435H3.88889V6.2565H31.1111V36.7435ZM5.83333 27.95H29.1667V32.25H5.83333V27.95ZM5.83333 19.35H29.1667V23.65H5.83333V19.35ZM5.83333 10.75H29.1667V15.05H5.83333V10.75Z" fill="#212121"/>
</svg>
